<svg width="26" height="26" viewBox="0 0 26 26" fill="none" xmlns="http://www.w3.org/2000/svg">
<path d="M2.55772 12.1019C3.2715 11.3882 4.40542 11.3506 5.16342 11.9892L5.28613 12.1019L15.4276 22.2434C16.181 22.9968 16.181 24.2184 15.4276 24.9718C14.7138 25.6856 13.5799 25.7231 12.8219 25.0845L12.6992 24.9718L2.55772 14.8304C1.80429 14.0769 1.80429 12.8554 2.55772 12.1019Z" fill="#444444"/>
<path d="M23.1821 1.01713C24.1888 0.021361 25.889 0.676573 25.9881 2.04258L25.9926 2.1687V12.905C25.9926 13.8045 25.2555 14.5336 24.3463 14.5336C23.4784 14.5336 22.7673 13.8692 22.7044 13.0266L22.6999 12.905L22.6996 6.09992L14.6568 14.0566C13.6502 15.0524 11.95 14.3972 11.8508 13.0311L11.8463 12.905L11.846 6.09992L3.80316 14.0566C3.19405 14.6591 2.22642 14.6908 1.57957 14.1517L1.47485 14.0566C0.865748 13.4541 0.83369 12.4969 1.37868 11.8571L1.47485 11.7535L12.3285 1.01713C13.3351 0.021361 15.0353 0.676573 15.1345 2.04258L15.139 2.1687L15.1387 8.97271L23.1821 1.01713Z" fill="white"/>
</svg>
